<?xml version="1.0" encoding="utf-8"?>
<!-- Generator: Adobe Illustrator 19.0.0, SVG Export Plug-In . SVG Version: 6.00 Build 0)  -->
<svg version="1.1" xmlns="http://www.w3.org/2000/svg" xmlns:xlink="http://www.w3.org/1999/xlink" x="0px" y="0px"
	 viewBox="0 0 423 423" style="enable-background:new 0 0 423 423;" xml:space="preserve">
<style type="text/css">
	.st0{display:none;}
	.st1{display:inline;fill:none;stroke:#000000;stroke-miterlimit:10;}
	.st2{display:inline;}
	.st3{stroke:#000000;stroke-miterlimit:10;}
	.st4{fill:#0175B8;}
	.st5{fill:#E41E26;}
	.st6{display:inline;fill:#0175B8;}
	.st7{display:inline;fill:#FFFFFF;stroke:#000000;stroke-miterlimit:10;}
	.st8{display:inline;fill:#FFFFFF;}
	.st9{fill:#FFFFFF;}
	.st10{fill:none;stroke:#000000;stroke-miterlimit:10;}
	.st11{fill:#7FC2D9;}
	.st12{fill:#E74C3D;}
	.st13{fill:none;stroke:#7FC2D9;stroke-miterlimit:10;}
	.st14{fill:#80C2D9;}
	.st15{fill:#F2F2F2;}
	.st16{fill:#E66255;}
	.st17{fill:#FFFEFE;}
	.st18{fill:#F37565;}
</style>
<g id="Layer_2" class="st0">
	<path id="XMLID_5_" class="st1" d="M74.3-10"/>
	<path id="XMLID_4_" class="st1" d="M146,7.3"/>
	<path id="XMLID_7_" class="st1" d="M252.3-53.3"/>
	<path id="XMLID_6_" class="st1" d="M172.6,15"/>
	<path id="XMLID_8_" class="st1" d="M317.3-63.7"/>
	<path id="XMLID_10_" class="st1" d="M277.3-22"/>
	<path id="XMLID_12_" class="st1" d="M194,104"/>
	<path id="XMLID_13_" class="st1" d="M196.3,105"/>
	<path id="XMLID_14_" class="st1" d="M325,39"/>
	<path id="XMLID_15_" class="st1" d="M257,114"/>
	<path id="XMLID_17_" class="st1" d="M202,225.3"/>
	<path id="XMLID_18_" class="st1" d="M252,230.7"/>
	<path id="XMLID_20_" class="st1" d="M46.3,52"/>
	<path id="XMLID_21_" class="st1" d="M320.5,232"/>
	<path id="XMLID_23_" class="st1" d="M402.8,195"/>
	<path id="XMLID_25_" class="st1" d="M302.5,331"/>
	<g id="XMLID_1_" class="st2">
		<path id="XMLID_9_" class="st3" d="M255-96.9c0,0,4.6,6.2,5.6,13.7c0.2,1.6,0.8,7.6-1.6,14.7c-1.3,3.7-2.9,6.2-4.1,8.1
			c-2.2,3.4-3.9,5.1-9.5,11c-6.6,6.9-8.6,9.1-10.4,11.1c-5.2,5.8-6.9,7.9-8.3,11.1c-0.8,1.8-2,4.6-2.2,8.2
			c-0.1,1.7,0.2,3.5,5.8,15.5c2.2,4.7,3.4,7.1,4.8,9.5c3,5.1,4.6,7.4,4.6,7.4S228,5.2,222.7-0.4c-9.4-9.8-11.5-15.1-12.2-17.2
			c-1.1-3.2-2.9-8.2-1.6-14c0.7-3.4,2.5-7.2,12.1-16.1c9.4-8.8,11.6-8.8,20.4-16.9c11.8-10.9,13.2-16.1,13.7-17.9
			C256.9-90.2,255-96.9,255-96.9z"/>
		<path id="XMLID_11_" class="st3" d="M288.5-60c0,0-0.5-0.4-6.3,0.8c-8.2,1.8-13.1,2.8-19.1,5.8c-1,0.5-2.6,1.3-4.6,2.6
			c-5.7,3.5-13,8.1-15.9,16.8c-2.3,6.9-1.1,14.9,1.3,18.9c1.3,2.1,3.2,4.2,6.2,9.6c1.8,3.3,2.5,4.2,2.9,5.7c1.1,4.6-0.4,8.6-0.9,9.9
			c-2.2,5.4-5.6,8.1-5.6,8.1s7.7-0.9,12.9-5.9c1.5-1.5,6.3-6.1,6.7-13c0.3-4.3-1.3-7.7-3.1-11.8c-2.8-6.1-5.2-7.1-6-12.1
			c-0.2-1.2-0.7-4.4,0.6-8c0.3-0.8,1.3-3.5,5.8-8c3.3-3.3,6.2-5.4,7.7-6.4C284.1-56.2,288.5-60,288.5-60z"/>
		<path id="XMLID_16_" class="st3" d="M215.8,10.3c0,0-17.4,6-16.9,8.8c0.2,1.6,6.3,2.1,13.2,2.6c4.3,0.3,7.4,0.3,14.6,0.2
			c10.6-0.1,16-0.1,18.1-0.2c5.5-0.3,9.9-0.7,17.2-1.4c3.8-0.4,6.7-0.7,12.6-1.2c1.9-0.2,7.1-0.6,7.1-0.6s-11.8,8.8-13.7,9.3
			c-1.9,0.5-10.7,2.8-19,3.5c-8.3,0.6-16.5,1.8-27.6,1.9c-4.9,0-8.4-0.1-15.3-0.5c-2-0.1-7-0.3-13.4-1.2c-5-0.6-7-1.1-9.3-2.1
			c-3.1-1.3-7.2-3-7.7-6c-0.6-4.2,6.5-8,7.5-8.6c2.5-1.4,4.9-1.8,9.6-2.8c1.3-0.3,5-1,10.3-1.4C206.4,10.2,210.7,10.1,215.8,10.3z"
			/>
		<path id="XMLID_19_" class="st3" d="M260.4,40.2c-2.9,0.8-4.3,1.2-6.1,1.9c-5.3,2.1-18.4,1.9-18.4,1.9
			c-15.2-0.2-29.6-0.4-30.8-5.2c-0.5-2,0.9-4.5,0.9-4.5s-9.3,2.5-13.4,7c-0.5,0.6-1.1,1.3-1.2,2.3c-0.3,3,3.9,5.7,5.6,6.8
			c2.5,1.6,11.7,6.5,43.3,5c0,0,15.6-0.7,25.9-4.5c0.8-0.3,1.9-0.8,4.2-1.6c2.9-0.9,3.9-1,4-1.6l-5.6-4.3l-5.7-3.7
			C263.1,39.7,262.2,39.8,260.4,40.2z"/>
		<path id="XMLID_22_" class="st3" d="M282,56.4c0,0,4.3-3,10.4-9.9c2.4-2.7,4-5,6.6-8.9c0.6-0.9,1.2-1.7,1.7-3
			c1.6-3.5,1.7-6.5,1.7-7.1c0-2.1,0.1-4.7-1.6-7.3c-2.2-3.4-5.8-4.4-6.8-4.7c-4.5-1.2-8.2,0-8.2,0s3.7-3.8,8.7-4.9
			c1-0.2,8.7-1.7,14.1,2.6c8,6.3,6.5,21.3,0.3,29.4c-2.7,3.6-6,5.4-11.8,8.5C290.3,55,282,56.4,282,56.4z"/>
		<path id="XMLID_24_" class="st3" d="M271.1,68.1c0,0-1.8-1.8-5.4-4.3c-2.7-1.9-6.1-4.9-6.1-4.9s-5.7,2.3-9.9,3.3
			c-3.4,0.8-7.9,1.1-16.8,1.7c-2.6,0.2-8.4,0.5-15.4-0.5c-2.1-0.3-5.3-0.9-5.7-2.6c-0.4-1.7,1.7-4.2,1.7-4.2s-4.5-0.3-7.8,1.4
			c-1.8,0.9-6.8,3.5-6.8,7.3c0,2.9,2.9,5,4.7,6.3c3.9,2.8,8,3.7,15.1,4.3c2.5,0.2,14,1.3,27.1-0.2c4-0.4,7-1,10.3-1.9
			c2.6-0.7,2.2-0.9,7-2.4C269,69.4,271.1,68.1,271.1,68.1z"/>
		<path id="XMLID_27_" class="st3" d="M299.7,76.4c-1.1,3.2-4.5,4.8-6.8,5.7c-14.7,6.1-28.3,7.3-28.3,7.3
			c-16.7,1.4-29.3,1.4-36.7,1.2c-8.3-0.2-13.4-0.8-23.5-1.9c-2.3-0.3-6.1-1.2-13.7-3c-5.5-1.3-9-2.3-10.1-5c-0.7-1.8-0.1-3.5,0-3.7
			c1.3-3.4,6.3-4.3,8.7-4.7c4.8-0.8,8-0.5,8-0.5s-2.8-2.9-5.9-3.8c-0.7-0.2-2.7-0.8-6.8-0.7c-2.3,0-5.3,0.1-8.9,1
			c-3.7,1-11.6,3.1-13.4,8.9c-1,3,0.2,5.9,0.5,6.8c3.1,7.7,14.1,10.4,25,12.9c4.5,1,8.3,1.6,12.3,2.1c14.6,1.8,26.5,1.8,33,1.7
			c14.8-0.2,25-1.5,37-3c0,0,14.4-1.8,28.3-8.5c2.8-1.4,7-3.6,8.3-8c1.2-4.2-0.9-7.8-1-8c-1.6-2.6-5.9-4-5.9-4
			S300.9,73.1,299.7,76.4z"/>
		<path id="XMLID_26_" class="st3" d="M188.1,104.4c0,0,9.6,4.3,15.3,6.1c2.3,0.7,10.2,3,21.4,4.5c5.4,0.7,9.8,0.9,18.6,1.4
			c9.4,0.5,14.1,0.7,18.8,0.5c9.4-0.4,17.4-1.8,23.5-3.3c8-1.9,13.3-4.1,18.6-6.3c4.3-1.8,9-3.9,13.2-8c1-0.9,3.7-3.8,4.7-8
			c0-0.1,0-3.7,0-3.7s-1.6,1.5-3.5,3.5c-1.8,1.8-3.5,2.9-7.1,5c-3.3,2-6.1,3.3-7.7,4c-6,2.7-11.9,4.5-17,5.7
			c-9.6,2.4-17.2,3.2-23.3,3.8c-12.5,1.3-22,1.2-24.3,1.2C209.9,110.7,188.1,104.4,188.1,104.4z"/>
	</g>
	<path id="XMLID_28_" class="st1" d="M422.5,378"/>
	<g id="XMLID_2_" class="st2">
		<g id="XMLID_3_">
			<path id="XMLID_35_" class="st3" d="M246,234c0,0,4.7,6.3,5.7,13.9c0.2,1.6,0.8,7.8-1.7,15c-1.3,3.8-2.9,6.4-4.1,8.3
				c-2.2,3.4-3.9,5.2-9.7,11.2c-6.7,7.1-8.8,9.3-10.6,11.3c-5.3,5.9-7,8-8.5,11.3c-0.8,1.8-2.1,4.7-2.2,8.4
				c-0.1,1.7,0.2,3.6,5.9,15.8c2.3,4.8,3.4,7.3,4.8,9.7c3.1,5.1,4.7,7.6,4.7,7.6s-11.8-8.5-17.2-14.2c-9.6-10-11.7-15.4-12.4-17.5
				c-1.1-3.3-2.9-8.4-1.7-14.3c0.7-3.4,2.5-7.3,12.3-16.4c9.6-9,11.9-8.9,20.8-17.2c12-11.1,13.5-16.4,13.9-18.2
				C247.9,240.9,246,234,246,234z"/>
			<path id="XMLID_34_" class="st3" d="M280.1,271.7c0,0-0.5-0.4-6.4,0.8c-8.4,1.8-13.3,2.9-19.5,5.9c-1,0.5-2.7,1.3-4.7,2.6
				c-5.8,3.6-13.2,8.2-16.2,17.1c-2.4,7-1.1,15.2,1.3,19.2c1.3,2.2,3.3,4.3,6.3,9.7c1.8,3.3,2.5,4.3,2.9,5.8c1.2,4.7-0.4,8.8-0.9,10
				c-2.2,5.5-5.7,8.3-5.7,8.3s7.8-0.9,13.1-6c1.5-1.5,6.4-6.2,6.8-13.2c0.3-4.4-1.3-7.9-3.2-12c-2.8-6.2-5.3-7.2-6.1-12.3
				c-0.2-1.2-0.7-4.4,0.6-8.1c0.3-0.8,1.3-3.5,5.9-8.1c3.4-3.4,6.4-5.5,7.8-6.5C275.6,275.5,280.1,271.7,280.1,271.7z"/>
		</g>
		<path id="XMLID_33_" class="st3" d="M261.3,345.8c0,0,17.7,6.1,17.2,9c-0.3,1.7-6.5,2.1-13.5,2.6c-4.4,0.3-7.5,0.3-14.9,0.2
			c-10.8-0.1-16.3-0.1-18.4-0.2c-5.6-0.3-10.1-0.7-17.5-1.4c-3.9-0.4-6.8-0.7-12.8-1.2c-1.9-0.2-7.3-0.6-7.3-0.6s12,9,13.9,9.4
			s10.9,2.9,19.4,3.5c8.4,0.6,16.8,1.8,28.1,1.9c5,0,8.6-0.1,15.6-0.5c2.1-0.1,7.2-0.3,13.7-1.2c5.1-0.6,7.2-1.2,9.4-2.1
			c3.2-1.4,7.4-3.1,7.8-6.1c0.6-4.2-6.6-8.1-7.7-8.7c-2.6-1.4-5-1.9-9.7-2.8c-1.4-0.3-5.1-1-10.4-1.4
			C271,345.8,266.6,345.6,261.3,345.8z"/>
		<path id="XMLID_32_" class="st3" d="M215.9,376.3c2.9,0.8,4.4,1.2,6.2,1.9c5.4,2.1,18.8,1.9,18.8,1.9c15.4-0.2,30.2-0.4,31.3-5.3
			c0.5-2-0.9-4.6-0.9-4.6s9.5,2.5,13.6,7.1c0.6,0.6,1.1,1.3,1.2,2.3c0.4,3.1-4,5.9-5.7,6.9c-2.6,1.6-11.9,6.7-44.1,5.1
			c0,0-15.8-0.8-26.4-4.6c-0.8-0.3-2-0.9-4.3-1.6c-2.9-1-3.9-1-4.1-1.6l5.7-4.4l5.8-3.7C213.2,375.8,214.1,375.8,215.9,376.3z"/>
		<path id="XMLID_31_" class="st3" d="M193.9,392.8c0,0-4.4-3.1-10.6-10.1c-2.5-2.8-4-5.1-6.7-9c-0.6-0.9-1.2-1.8-1.8-3
			c-1.7-3.5-1.8-6.6-1.8-7.3c0-2.1-0.1-4.8,1.6-7.4c2.2-3.5,5.9-4.5,6.9-4.8c4.6-1.2,8.3,0,8.3,0s-3.8-3.9-8.9-5
			c-1-0.2-8.8-1.7-14.3,2.7c-8.1,6.4-6.6,21.7-0.4,29.9c2.8,3.6,6.1,5.5,12,8.7C185.5,391.4,193.9,392.8,193.9,392.8z"/>
		<path id="XMLID_30_" class="st3" d="M205.1,404.7c0,0,1.8-1.9,5.5-4.4c2.8-1.9,6.2-5,6.2-5s5.8,2.3,10.1,3.4
			c3.4,0.8,8,1.2,17.1,1.8c2.7,0.2,8.5,0.6,15.7-0.5c2.2-0.3,5.4-0.9,5.8-2.7c0.4-1.7-1.8-4.3-1.8-4.3s4.6-0.3,8,1.4
			c1.8,0.9,6.9,3.6,6.9,7.4c0,2.9-2.9,5.1-4.8,6.4c-4,2.8-8.2,3.7-15.4,4.4c-2.6,0.2-14.3,1.3-27.6-0.2c-4-0.4-7.1-1-10.4-1.9
			c-2.6-0.8-2.3-0.9-7.1-2.5C207.1,406,205.1,404.7,205.1,404.7z"/>
		<path id="XMLID_29_" class="st3" d="M175.9,413.2c1.1,3.2,4.6,4.9,6.9,5.8c15,6.3,28.9,7.4,28.9,7.4c17,1.4,29.8,1.4,37.4,1.2
			c8.5-0.2,13.6-0.8,23.9-1.9c2.4-0.3,6.2-1.2,14-3c5.6-1.3,9.2-2.3,10.3-5.1c0.7-1.8,0.1-3.5,0-3.7c-1.3-3.5-6.5-4.4-8.9-4.8
			c-4.9-0.8-8.1-0.5-8.1-0.5s2.9-2.9,6-3.9c0.7-0.2,2.7-0.8,6.9-0.7c2.4,0,5.4,0.1,9,1.1c3.7,1,11.8,3.1,13.6,9c1,3.1-0.2,6-0.5,6.9
			c-3.2,7.9-14.4,10.6-25.5,13.1c-4.6,1-8.4,1.6-12.6,2.1c-14.8,1.8-27,1.9-33.6,1.8c-15.1-0.2-25.4-1.5-37.7-3
			c0,0-14.7-1.8-28.9-8.7c-2.9-1.4-7.2-3.7-8.5-8.1c-1.3-4.2,0.9-7.9,1.1-8.1c1.7-2.7,6-4.1,6-4.1S174.7,409.8,175.9,413.2z"/>
		<path id="XMLID_36_" class="st3" d="M289.6,441.7c0,0-9.8,4.4-15.6,6.2c-2.4,0.7-10.4,3.1-21.8,4.6c-5.5,0.7-10,1-18.9,1.4
			c-9.5,0.5-14.3,0.7-19.1,0.5c-9.6-0.4-17.7-1.9-23.9-3.4c-8.2-2-13.5-4.2-18.9-6.4c-4.4-1.8-9.2-4-13.5-8.1c-1-1-3.8-3.8-4.8-8.1
			c0-0.1,0-3.7,0-3.7s1.6,1.5,3.5,3.5c1.8,1.8,3.6,2.9,7.3,5.1c3.3,2,6.2,3.3,7.8,4.1c6.1,2.8,12.1,4.5,17.4,5.8
			c9.8,2.4,17.5,3.3,23.7,3.9c12.7,1.3,22.4,1.3,24.8,1.2C267.4,448.1,289.6,441.7,289.6,441.7z"/>
	</g>
</g>
<g id="Layer_4" class="st0">
	<path id="XMLID_51_" class="st1" d="M633,118"/>
	<g id="XMLID_56_" class="st2">
		<g id="XMLID_43_">
			<path id="XMLID_49_" d="M351,203.7"/>
			<polyline id="XMLID_48_" class="st3" points="504,123.8 471,123.8 457.9,199.5 368.9,199.5 352.4,146.8 467.7,146.8 			"/>
			<polyline id="XMLID_47_" class="st3" points="457.9,199.5 467.7,225.9 388.7,225.9 			"/>
			<ellipse id="XMLID_46_" class="st3" cx="456.2" cy="247.3" rx="14.8" ry="11.5"/>
			<ellipse id="XMLID_44_" class="st3" cx="396.9" cy="247.3" rx="14.8" ry="11.5"/>
		</g>
		<path id="XMLID_53_" class="st3" d="M399.1,79.2c0,0-7.1,14.3-0.9,24.1c4.1,6.5,10.1,5.6,11.6,10.6c2.9,9.5-13.9,24.1-13.9,24.1
			s12.3,0.1,18.5-7.4c4.3-5.2,6.8-13.7,3.7-19.9c-3-6.1-8.7-4.5-13.9-11.1C397.2,90.7,399.1,79.2,399.1,79.2z"/>
		<path id="XMLID_52_" class="st3" d="M425.9,63c-6.3,16.5-5.2,23.1-2.8,25.9c0.1,0.1,3.3,3.6,9.7,10.6c0.7,0.7,0.7,0.7,0.7,0.8
			c1.9,2.2,6.2,7.6,6.2,14.5c0.2,12.8-18.1,21.8-18.1,21.8c2.2-6.7,4-16,1.4-25.9c-4.1-16.1-16.5-22-14.8-31.9
			C409,74.3,412.8,68.5,425.9,63z"/>
	</g>
	<g id="XMLID_57_" class="st2">
		<g id="XMLID_38_">
			<path id="XMLID_45_" d="M470.2,472.4"/>
			<polyline id="XMLID_39_" class="st3" points="297,381.9 334.3,381.9 349.2,467.7 449.9,467.7 468.6,408 338,408 			"/>
			<polyline id="XMLID_40_" class="st3" points="349.2,467.7 338,497.5 427.5,497.5 			"/>
			<ellipse id="XMLID_41_" class="st3" cx="351.1" cy="521.8" rx="16.8" ry="13.1"/>
			<ellipse id="XMLID_42_" class="st3" cx="418.2" cy="521.8" rx="16.8" ry="13.1"/>
		</g>
		<g id="XMLID_50_">
			<path id="XMLID_54_" class="st3" d="M382.1,333.6c0,0-8.1,16.4-1.1,27.6c4.7,7.4,11.5,6.4,13.3,12.2
				c3.3,10.9-15.9,27.6-15.9,27.6s14.1,0.2,21.2-8.5c4.9-6,7.8-15.7,4.2-22.8c-3.5-7-9.9-5.2-15.9-12.7
				C380,346.8,382.1,333.6,382.1,333.6z"/>
			<path id="XMLID_55_" class="st3" d="M412.9,315c-7.2,19-5.9,26.5-3.2,29.7c0.1,0.1,3.8,4.2,11.2,12.2c0.8,0.8,0.8,0.8,0.8,0.9
				c2.2,2.5,7.1,8.8,7.2,16.6c0.2,14.7-20.7,25-20.7,25c2.5-7.7,4.5-18.3,1.6-29.7c-4.7-18.4-18.9-25.3-17-36.6
				C393.6,327.9,397.8,321.3,412.9,315z"/>
		</g>
	</g>
</g>
<g id="Layer_3" class="st0">
	<g id="XMLID_37_" class="st2">
		<g id="XMLID_60_">
			<path id="XMLID_65_" class="st4" d="M362.8-26.2"/>
			<polyline id="XMLID_64_" class="st4" points="510.4,-103.4 478.6,-103.4 465.9,-30.2 380.1,-30.2 364.2,-81.1 475.5,-81.1 			"/>
			<polyline id="XMLID_63_" class="st4" points="465.9,-30.2 475.5,-4.8 399.2,-4.8 			"/>
			<ellipse id="XMLID_62_" class="st4" cx="464.3" cy="15.8" rx="14.3" ry="11.1"/>
			<ellipse id="XMLID_61_" class="st4" cx="407.1" cy="15.8" rx="14.3" ry="11.1"/>
		</g>
		<path id="XMLID_59_" class="st5" d="M445.2-146.4c0,0,6.9,13.8,0.9,23.2c-4,6.3-9.7,5.4-11.2,10.3c-2.8,9.2,13.4,23.2,13.4,23.2
			s-11.9,0.1-17.9-7.1c-4.2-5.1-6.6-13.2-3.6-19.2c2.9-5.9,8.4-4.3,13.4-10.7C447-135.2,445.2-146.4,445.2-146.4z"/>
		<path id="XMLID_58_" class="st5" d="M419.3-162c6,15.9,5,22.3,2.7,25c-0.1,0.1-3.2,3.5-9.4,10.3c-0.6,0.7-0.6,0.7-0.7,0.7
			c-1.8,2.1-5.9,7.4-6,14c-0.1,12.4,17.4,21,17.4,21c-2.1-6.4-3.8-15.4-1.3-25c4-15.5,15.9-21.3,14.3-30.8
			C435.6-151.1,432-156.7,419.3-162z"/>
	</g>
	<path id="XMLID_74_" class="st6" d="M375.4,471.7"/>
	<g id="XMLID_66_" class="st2">
		<polyline id="XMLID_73_" class="st4" points="126,202.1 160.1,202.1 173.8,280.6 265.9,280.6 283,226 163.5,226 		"/>
		<polyline id="XMLID_72_" class="st4" points="173.8,280.6 163.5,307.9 245.4,307.9 		"/>
		<ellipse id="XMLID_71_" class="st4" cx="175.5" cy="330.1" rx="15.4" ry="11.9"/>
		<ellipse id="XMLID_70_" class="st4" cx="236.9" cy="330.1" rx="15.4" ry="11.9"/>
		<path id="XMLID_68_" class="st5" d="M234.7,155.9c0,0,7.4,14.8,1,24.9c-4.3,6.7-10.4,5.8-12,11c-3,9.9,14.4,24.9,14.4,24.9
			s-12.8,0.1-19.2-7.7c-4.5-5.4-7.1-14.2-3.8-20.6c3.2-6.3,9-4.7,14.4-11.5C236.6,167.9,234.7,155.9,234.7,155.9z"/>
		<path id="XMLID_67_" class="st5" d="M206.9,139.1c6.5,17.1,5.4,23.9,2.9,26.9c-0.1,0.1-3.4,3.8-10.1,11c-0.7,0.8-0.7,0.8-0.7,0.8
			c-2,2.2-6.4,7.9-6.5,15c-0.2,13.3,18.7,22.5,18.7,22.5c-2.2-6.9-4.1-16.5-1.4-26.9c4.3-16.6,17.1-22.8,15.3-33.1
			C224.3,150.8,220.5,144.8,206.9,139.1z"/>
	</g>
</g>
<g id="Layer_7" class="st0">
	<path id="XMLID_91_" class="st7" d="M726.1,275.2"/>
	<path id="XMLID_119_" class="st1" d="M608.2,152.6"/>
	<path id="XMLID_121_" class="st1" d="M640,57.2"/>
	<path id="XMLID_287_" class="st8" d="M549-27"/>
	<g id="XMLID_294_" class="st2">
		<path id="XMLID_88_" class="st9" d="M127.8,332.3"/>
		<path id="XMLID_90_" class="st9" d="M346.5,334"/>
		<path id="XMLID_107_" class="st3" d="M354.4,238"/>
		<path id="XMLID_89_" class="st10" d="M221.7,353.3"/>
		<path id="XMLID_109_" class="st10" d="M319.1,367.5"/>
		<path id="XMLID_111_" class="st10" d="M290.6,396"/>
		<path id="XMLID_92_" class="st10" d="M252.6,339"/>
		<path id="XMLID_108_" class="st3" d="M452.8,257.9"/>
		<path id="XMLID_110_" class="st3" d="M93,270.4"/>
		<path id="XMLID_112_" class="st10" d="M53.1,301"/>
		<path id="XMLID_118_" class="st3" d="M91.1,263"/>
		<path id="XMLID_106_" class="st3" d="M385.7,38.2"/>
		<g id="XMLID_120_">
			<path id="XMLID_87_" class="st11" d="M82.1,120.6c101.4,0,202.7-0.1,304.1-0.1c0.3,37.3-2.8,82.3-13.3,132.5
				c-6.8,32.2-15.5,60.9-24.7,86c-76,0-152,0-228,0c-10.9-26.7-22-59.9-29.5-98.9C81.8,193.8,80.6,152.9,82.1,120.6z"/>
			<path id="XMLID_289_" class="st11" d="M424.9,133.1c-16.5-5-32.6,3-39.2,6.7l-4.8,34.5c12.2-10.7,27-13.9,35.4-9.2
				c13.5,7.5,5.7,32.6,4.8,35.2c-8.5,26.4-38.5,38.8-49.8,42.8l-4.1,29.5c49.1-5.7,85.7-35.1,91.1-69.7
				C462,178.5,452.1,141.2,424.9,133.1z"/>
			<polygon id="XMLID_286_" class="st11" points="91.7,348.5 376.7,348.5 367.2,358 101.2,358 			"/>
		</g>
		<path id="XMLID_122_" class="st12" d="M214.1-42.2c-6.4,16.6-24.6,15.6-34.5,37.4c-6.2,13.6-4.2,26.2-1,45.1
			c6.7,39,28.8,69.1,28.8,69.1c-4.6-25.9-6.7-48.1-7.7-65.3c-1.6-28,0.2-34.7,1-37.4c9.7-32.9,40-33.7,42.2-54.7
			c4-37.3-62.4-69.1-62.4-69.1S225.8-72.8,214.1-42.2z"/>
		<path id="XMLID_288_" class="st12" d="M290.6-60c0,0-27.1,20.9-29.7,50.9c-1.5,16.2,4.7,18.5,4.8,35.5
			c0.2,37.8-24.9,66.2-24.9,66.2s29.5-5.2,39.3-25.9c11.6-24.2-9.4-40.8-3.8-81.6C280.1-43.5,290.6-60,290.6-60z"/>
		<path id="XMLID_290_" class="st12" d="M312.7-9.8"/>
		<path id="XMLID_291_" class="st12" d="M355,21.9"/>
		<path id="XMLID_292_" class="st12" d="M234,43.9"/>
		<path id="XMLID_293_" class="st12" d="M241.7,13.2"/>
	</g>
</g>
<g id="Layer_5">
	<path id="XMLID_69_" class="st13" d="M185.6-10.8"/>
	<path id="XMLID_94_" class="st10" d="M144.4,215.7"/>
	<path id="XMLID_125_" class="st9" d="M108.2,188.8"/>
	<path id="XMLID_124_" class="st9" d="M182.8,189.4"/>
	<path id="XMLID_123_" class="st3" d="M185.5,156.6"/>
	<path id="XMLID_117_" class="st10" d="M140.2,196"/>
	<path id="XMLID_116_" class="st10" d="M173.4,200.8"/>
	<path id="XMLID_115_" class="st10" d="M163.7,210.6"/>
	<path id="XMLID_114_" class="st10" d="M150.7,191.1"/>
	<path id="XMLID_113_" class="st3" d="M219.1,163.4"/>
	<path id="XMLID_105_" class="st3" d="M96.3,167.7"/>
	<path id="XMLID_104_" class="st10" d="M82.7,178.1"/>
	<path id="XMLID_103_" class="st3" d="M95.6,165.2"/>
	<path id="XMLID_102_" class="st3" d="M196.1,88.5"/>
	<g id="XMLID_75_">
		<circle id="XMLID_129_" class="st14" cx="211.5" cy="211.5" r="211.5"/>
		<g id="XMLID_128_">
			<g id="XMLID_127_">
				<g id="XMLID_126_">
					<g id="XMLID_79_">
						<path id="XMLID_81_" class="st9" d="M211.5,363.4H94.8c-3.8,0-6.9-3.1-6.9-6.9V123.1c0-3.8,6.9-6.9,6.9-6.9h116.7"/>
						<path id="XMLID_80_" class="st15" d="M211.5,116.3h116.7c3.8,0,6.9,3.1,6.9,6.9v233.4c0,3.8-3.1,6.9-6.9,6.9H211.5"/>
					</g>
					<g id="XMLID_98_">
						<path id="XMLID_101_" class="st11" d="M159.6,228.2c34.6,0,69.2,0,103.8,0c0.1,12.7-0.9,28.1-4.6,45.2
							c-2.3,11-5.3,20.8-8.4,29.3c-25.9,0-51.9,0-77.8,0c-3.7-9.1-7.5-20.4-10.1-33.7C159.5,253.2,159.1,239.2,159.6,228.2z"/>
						<path id="XMLID_100_" class="st11" d="M276.6,232.5c-5.6-1.7-11.1,1-13.4,2.3l-1.6,11.8c4.2-3.6,9.2-4.7,12.1-3.2
							c4.6,2.5,1.9,11.1,1.6,12c-2.9,9-13.1,13.3-17,14.6l-1.4,10.1c16.8-1.9,29.2-12,31.1-23.8C289.3,248,285.9,235.3,276.6,232.5z
							"/>
						<polygon id="XMLID_99_" class="st11" points="162.9,306 260.1,306 256.9,309.2 166.1,309.2 						"/>
					</g>
				</g>
				<rect id="XMLID_83_" x="154.9" y="116.3" class="st16" width="15.4" height="36"/>
				<rect id="XMLID_84_" x="252.7" y="116.3" class="st16" width="15.4" height="36"/>
				<polyline id="XMLID_78_" class="st17" points="211.5,59.6 183.2,59.6 154.9,80.2 211.5,80.2 				"/>
				<polyline id="XMLID_82_" class="st15" points="211.5,80.2 268.1,80.2 239.8,59.6 211.5,59.6 				"/>
				<rect id="XMLID_85_" x="154.9" y="80.2" class="st18" width="15.4" height="36"/>
				<rect id="XMLID_86_" x="252.7" y="80.2" class="st18" width="15.4" height="36"/>
			</g>
			<path id="XMLID_97_" class="st12" d="M204.7,172.7c-2.2,5.7-8.4,5.3-11.8,12.8c-2.1,4.6-1.4,9-0.3,15.4
				c2.3,13.3,9.8,23.6,9.8,23.6c-1.6-8.8-2.3-16.4-2.6-22.3c-0.5-9.5,0.1-11.9,0.3-12.8c3.3-11.2,13.6-11.5,14.4-18.7
				c1.4-12.7-21.3-23.6-21.3-23.6S208.7,162.2,204.7,172.7z"/>
			<path id="XMLID_96_" class="st12" d="M230.8,166.6c0,0-9.2,7.1-10.2,17.4c-0.5,5.5,1.6,6.3,1.6,12.1c0.1,12.9-8.5,22.6-8.5,22.6
				s10.1-1.8,13.4-8.8c3.9-8.3-3.2-13.9-1.3-27.8C227.2,172.2,230.8,166.6,230.8,166.6z"/>
		</g>
	</g>
	<path id="XMLID_95_" class="st12" d="M171.3,72.1"/>
	<path id="XMLID_93_" class="st12" d="M185.7,82.9"/>
	<path id="XMLID_76_" class="st12" d="M144.4,90.4"/>
	<path id="XMLID_77_" class="st12" d="M147,80"/>
</g>
</svg>
